<svg width="100%" height="100%" viewBox="0 0 86 24" fill="none" xmlns="http://www.w3.org/2000/svg"><path fill-rule="evenodd" clip-rule="evenodd" d="M32.5897 13.3612C32.645 13.7638 32.7537 14.0647 32.9158 14.264C33.2122 14.6268 33.7202 14.8081 34.4396 14.8081C34.8704 14.8081 35.2202 14.7603 35.489 14.6646C35.9989 14.4813 36.2539 14.1405 36.2539 13.6422C36.2539 13.3513 36.1274 13.126 35.8744 12.9666C35.6214 12.8112 35.2242 12.6736 34.6827 12.5541L33.7577 12.3448C32.8486 12.1375 32.2201 11.9123 31.8723 11.6692C31.2833 11.2626 30.9888 10.6268 30.9888 9.76189C30.9888 8.97266 31.2734 8.31697 31.8426 7.79481C32.4118 7.27264 33.2478 7.01157 34.3506 7.01157C35.2716 7.01157 36.0572 7.2577 36.7075 7.74997C37.3577 8.24224 37.6986 8.95671 37.7302 9.89342H35.9752C35.9436 9.36329 35.7143 8.98662 35.2874 8.7634C35.0028 8.61592 34.6491 8.54218 34.2261 8.54218C33.7557 8.54218 33.3802 8.63784 33.0996 8.82917C32.8189 9.0205 32.6786 9.28755 32.6786 9.63035C32.6786 9.94524 32.817 10.1804 33.0937 10.3359C33.2715 10.4395 33.651 10.5611 34.2321 10.7006L35.738 11.0653C36.3982 11.2247 36.8962 11.438 37.2322 11.705C37.754 12.1196 38.0148 12.7195 38.0148 13.5047C38.0148 14.3099 37.7095 14.9785 37.0988 15.5107C36.4881 16.0428 35.6254 16.3088 34.5107 16.3088C33.3723 16.3088 32.477 16.0468 31.8248 15.5226C31.1726 14.9985 30.8465 14.278 30.8465 13.3612H32.5897ZM40.7128 16.0816H39.023V7.26865H40.7128V16.0816ZM43.7577 11.1669C43.5422 11.4141 43.4069 11.7489 43.3515 12.1714H45.9781C45.9505 11.721 45.8151 11.3792 45.572 11.146C45.3289 10.9128 45.0275 10.7962 44.6678 10.7962C44.2765 10.7962 43.9731 10.9198 43.7577 11.1669ZM46.1204 9.69611C46.5513 9.89939 46.907 10.2203 47.1877 10.6587C47.4406 11.0454 47.6047 11.4938 47.6798 12.004C47.7233 12.3029 47.7411 12.7334 47.7332 13.2954H43.31C43.3337 13.9491 43.5373 14.4075 43.9207 14.6706C44.1539 14.834 44.4346 14.9157 44.7627 14.9157C45.1105 14.9157 45.3931 14.8161 45.6105 14.6168C45.7291 14.5092 45.8339 14.3597 45.9248 14.1684H47.6501C47.6067 14.555 47.4071 14.9476 47.0513 15.3462C46.4979 15.98 45.7232 16.2969 44.7271 16.2969C43.9049 16.2969 43.1796 16.0298 42.5511 15.4957C41.9226 14.9616 41.6084 14.0926 41.6084 12.8889C41.6084 11.7608 41.892 10.8959 42.4592 10.294C43.0264 9.69212 43.7626 9.39118 44.6678 9.39118C45.2054 9.39118 45.6896 9.49282 46.1204 9.69611ZM50.2681 11.1669C50.0527 11.4141 49.9173 11.7489 49.8619 12.1714H52.4886C52.4609 11.721 52.3255 11.3792 52.0824 11.146C51.8393 10.9128 51.5379 10.7962 51.1782 10.7962C50.7869 10.7962 50.4835 10.9198 50.2681 11.1669ZM52.6309 9.69611C53.0617 9.89939 53.4175 10.2203 53.6981 10.6587C53.9511 11.0454 54.1151 11.4938 54.1902 12.004C54.2337 12.3029 54.2515 12.7334 54.2436 13.2954H49.8204C49.8442 13.9491 50.0477 14.4075 50.4311 14.6706C50.6644 14.834 50.945 14.9157 51.2731 14.9157C51.6209 14.9157 51.9035 14.8161 52.1209 14.6168C52.2395 14.5092 52.3443 14.3597 52.4352 14.1684H54.1606C54.1171 14.555 53.9175 14.9476 53.5617 15.3462C53.0083 15.98 52.2336 16.2969 51.2375 16.2969C50.4153 16.2969 49.69 16.0298 49.0615 15.4957C48.433 14.9616 48.1188 14.0926 48.1188 12.8889C48.1188 11.7608 48.4024 10.8959 48.9696 10.294C49.5368 9.69212 50.273 9.39118 51.1782 9.39118C51.7158 9.39118 52.2 9.49282 52.6309 9.69611ZM55.1213 7.29855H56.7815V12.0458L58.8863 9.59447H60.9793L58.7203 12.0877L61.0682 16.0816H59.0286L57.4811 13.2954L56.7815 14.0309V16.0816H55.1213V7.29855ZM66.8701 9.93826C67.2951 10.291 67.5075 10.876 67.5075 11.6931V16.0816H65.7762V12.1176C65.7762 11.7748 65.7308 11.5117 65.6398 11.3284C65.4738 10.9935 65.1576 10.8261 64.6912 10.8261C64.118 10.8261 63.7247 11.0713 63.5113 11.5615C63.4006 11.8206 63.3453 12.1515 63.3453 12.5541V16.0816H61.6614V9.57653H63.2919V10.5272C63.5093 10.1924 63.7149 9.95121 63.9085 9.80373C64.2564 9.54066 64.6971 9.40912 65.2307 9.40912C65.8988 9.40912 66.4452 9.5855 66.8701 9.93826ZM72.8618 14.3477C73.1266 13.993 73.259 13.4888 73.259 12.8351C73.259 12.1814 73.1266 11.6781 72.8618 11.3254C72.5969 10.9726 72.2175 10.7962 71.7234 10.7962C71.2293 10.7962 70.8488 10.9726 70.582 11.3254C70.3152 11.6781 70.1818 12.1814 70.1818 12.8351C70.1818 13.4888 70.3152 13.993 70.582 14.3477C70.8488 14.7025 71.2293 14.8799 71.7234 14.8799C72.2175 14.8799 72.5969 14.7025 72.8618 14.3477ZM74.2136 15.2894C73.6681 15.969 72.84 16.3088 71.7293 16.3088C70.6186 16.3088 69.7905 15.969 69.245 15.2894C68.6995 14.6098 68.4268 13.7917 68.4268 12.8351C68.4268 11.8944 68.6995 11.0792 69.245 10.3897C69.7905 9.70009 70.6186 9.35531 71.7293 9.35531C72.84 9.35531 73.6681 9.70009 74.2136 10.3897C74.7591 11.0792 75.0318 11.8944 75.0318 12.8351C75.0318 13.7917 74.7591 14.6098 74.2136 15.2894ZM75.3344 10.8381V9.62436H76.2357V7.80676H77.9077V9.62436H78.9571V10.8381H77.9077V14.282C77.9077 14.549 77.9413 14.7154 78.0085 14.7812C78.0757 14.847 78.2812 14.8799 78.6251 14.8799C78.6765 14.8799 78.7308 14.8789 78.7882 14.8769C78.8455 14.8749 78.9018 14.8719 78.9571 14.8679V16.1414L78.1567 16.1713C77.3582 16.1992 76.8128 16.0597 76.5203 15.7528C76.3305 15.5575 76.2357 15.2565 76.2357 14.85V10.8381H75.3344ZM81.4387 11.1669C81.2233 11.4141 81.0879 11.7489 81.0326 12.1714H83.6592C83.6315 11.721 83.4961 11.3792 83.253 11.146C83.0099 10.9128 82.7085 10.7962 82.3488 10.7962C81.9575 10.7962 81.6541 10.9198 81.4387 11.1669ZM83.8015 9.69611C84.2323 9.89939 84.5881 10.2203 84.8687 10.6587C85.1217 11.0454 85.2857 11.4938 85.3608 12.004C85.4043 12.3029 85.4221 12.7334 85.4142 13.2954H80.9911C81.0148 13.9491 81.2184 14.4075 81.6018 14.6706C81.835 14.834 82.1156 14.9157 82.4437 14.9157C82.7916 14.9157 83.0742 14.8161 83.2916 14.6168C83.4102 14.5092 83.5149 14.3597 83.6058 14.1684H85.3312C85.2877 14.555 85.0881 14.9476 84.7324 15.3462C84.179 15.98 83.4042 16.2969 82.4081 16.2969C81.586 16.2969 80.8606 16.0298 80.2321 15.4957C79.6037 14.9616 79.2894 14.0926 79.2894 12.8889C79.2894 11.7608 79.573 10.8959 80.1402 10.294C80.7075 9.69212 81.4437 9.39118 82.3488 9.39118C82.8864 9.39118 83.3706 9.49282 83.8015 9.69611Z" fill="white" data-color-group="0"/><path fill-rule="evenodd" clip-rule="evenodd" d="M2.44681 0C1.448 0 0.638298 0.815482 0.638298 1.82143V21.4929C0.638298 22.4988 1.448 23.3143 2.44681 23.3143H21.9787C22.9775 23.3143 23.7872 22.4988 23.7872 21.4929V1.82143C23.7872 0.815482 22.9775 0 21.9787 0H2.44681ZM8.87505 6.06172H14.7174C17.6045 6.06172 19.9881 8.43327 19.9881 11.4581V17.0331H8.87505C5.98797 17.0331 3.64766 14.5721 3.64766 11.5474C3.64766 8.5226 5.98797 6.06172 8.87505 6.06172ZM14.2942 15.7424C15.5319 15.7424 16.6512 15.2258 17.4559 14.4578C18.2446 13.7049 18.7311 12.6313 18.7311 11.4913C18.7311 9.18785 16.7445 7.35247 14.2942 7.35247H9.34141C6.89107 7.35247 4.90462 9.24415 4.90462 11.5474C4.90462 13.8511 6.89107 15.7424 9.34141 15.7424H14.2942ZM13.0614 10.4574C13.5027 10.4574 13.8604 10.0873 13.8604 9.63098C13.8604 9.17461 13.5027 8.80457 13.0614 8.80457C12.6201 8.80457 12.2623 9.17461 12.2623 9.63098C12.2623 9.66332 12.2645 9.69505 12.268 9.72631L10.8353 10.8219C10.7534 10.7926 10.6659 10.776 10.5744 10.776C10.1331 10.776 9.77532 11.1459 9.77532 11.6024C9.77532 12.0587 10.1331 12.4287 10.5744 12.4287C10.6868 12.4287 10.7937 12.4045 10.8906 12.3611L12.266 13.3861C12.2637 13.4117 12.2623 13.4377 12.2623 13.4639C12.2623 13.9202 12.6201 14.2903 13.0614 14.2903C13.5027 14.2903 13.8604 13.9202 13.8604 13.4639C13.8604 13.0076 13.5027 12.6375 13.0614 12.6375C12.9548 12.6375 12.8534 12.6595 12.7604 12.6987L11.3704 11.663L11.3707 11.6587C11.372 11.6401 11.3733 11.6214 11.3733 11.6024C11.3733 11.5616 11.3696 11.5219 11.364 11.4827L12.777 10.4024C12.8654 10.4374 12.9611 10.4574 13.0614 10.4574Z" fill="white" data-color-group="0"/></svg>